<svg xmlns="http://www.w3.org/2000/svg" viewBox="0 0 800 500" fill="none">
  <rect width="800" height="500" rx="12" fill="#1a1f35"/>
  <rect x="40" y="40" width="720" height="30" rx="6" fill="#222845"/>
  <circle cx="65" cy="55" r="6" fill="#f43f5e"/>
  <circle cx="85" cy="55" r="6" fill="#ffb800"/>
  <circle cx="105" cy="55" r="6" fill="#10b981"/>
  <rect x="40" y="90" width="200" height="14" rx="3" fill="#222845"/>
  <rect x="40" y="120" width="320" height="10" rx="2" fill="#1e2440"/>
  <rect x="40" y="145" width="280" height="10" rx="2" fill="#1e2440"/>
  <rect x="40" y="170" width="350" height="10" rx="2" fill="#1e2440"/>
  <rect x="40" y="210" width="720" height="1" fill="#222845"/>
  <rect x="40" y="230" width="340" height="200" rx="8" fill="#222845"/>
  <rect x="400" y="230" width="360" height="200" rx="8" fill="#222845"/>
  <rect x="60" y="250" width="140" height="12" rx="3" fill="#00f0ff" opacity="0.6"/>
  <rect x="60" y="275" width="300" height="8" rx="2" fill="#2a3050"/>
  <rect x="60" y="295" width="280" height="8" rx="2" fill="#2a3050"/>
  <rect x="60" y="315" width="260" height="8" rx="2" fill="#2a3050"/>
  <rect x="420" y="250" width="160" height="12" rx="3" fill="#ffb800" opacity="0.6"/>
  <rect x="420" y="275" width="320" height="8" rx="2" fill="#2a3050"/>
  <rect x="420" y="295" width="300" height="8" rx="2" fill="#2a3050"/>
  <rect x="420" y="315" width="280" height="8" rx="2" fill="#2a3050"/>
  <text x="400" y="480" text-anchor="middle" fill="#4a5568" font-family="monospace" font-size="14">Project Preview</text>
</svg>
